<svg xmlns="http://www.w3.org/2000/svg" fill="none" viewBox="0 0 91 35" height="35" width="91">
<g clip-path="url(#clip0_406_4635)">
<path fill="black" d="M54.7595 30.42C54.6395 30.315 54.4745 30.24 54.302 30.195C54.1295 30.1425 53.822 30.12 53.372 30.12H52.052L51.3545 34.4775H52.472L52.742 32.775L53.3645 34.23L53.462 34.4775H54.8045L53.897 32.7225C54.227 32.655 54.497 32.5125 54.6995 32.3025C54.8945 32.0925 55.0145 31.815 55.0745 31.4775C55.1045 31.26 55.097 31.0575 55.037 30.87C54.992 30.69 54.8945 30.54 54.752 30.42M53.867 31.6425C53.8445 31.83 53.762 31.9575 53.6345 32.055C53.567 32.1 53.4695 32.1375 53.3645 32.145C53.267 32.1675 53.162 32.1825 53.057 32.1825H52.832L53.012 31.0425H53.3645C53.567 31.0575 53.702 31.1025 53.7845 31.17C53.882 31.26 53.9045 31.4175 53.867 31.6425ZM42.812 32.28C42.8045 32.385 42.7895 32.505 42.7745 32.6475C42.7595 32.79 42.752 32.955 42.737 33.1275C42.692 32.94 42.632 32.775 42.5795 32.6475C42.5345 32.505 42.4895 32.415 42.4595 32.3625L41.177 30.1275H40.037L39.3395 34.485H40.4795L40.8245 32.3325C40.847 32.2275 40.862 32.1 40.8695 31.9575C40.8845 31.815 40.892 31.665 40.892 31.4775C40.952 31.665 40.997 31.83 41.057 31.9575C41.102 32.0925 41.1395 32.19 41.162 32.235L42.4445 34.485H43.5845L44.282 30.1275H43.1495L42.797 32.2875L42.812 32.28ZM60.197 30.12H59.057L58.712 32.28C58.7045 32.385 58.6745 32.505 58.667 32.6475C58.652 32.79 58.652 32.955 58.6445 33.1275C58.5845 32.94 58.5395 32.775 58.4945 32.6475C58.4345 32.505 58.397 32.415 58.3745 32.3625L57.092 30.1275H55.952L55.2545 34.485H56.3945L56.7395 32.3325C56.762 32.2275 56.777 32.1 56.7845 31.9575C56.7995 31.815 56.7995 31.665 56.807 31.4775C56.867 31.665 56.912 31.83 56.957 31.9575C57.017 32.0925 57.047 32.19 57.077 32.235L58.3595 34.485H59.4995L60.0545 30.99L60.197 30.1275V30.12ZM37.1945 34.4775H38.3945L39.092 30.12H37.892L37.1945 34.4775ZM47.957 34.11L47.897 34.4775H50.567L50.717 33.5025H49.2095L49.3295 32.76H50.7545L50.897 31.83H49.472L49.5995 31.08H51.107L51.257 30.1275H48.587L47.9495 34.1175L47.957 34.11ZM48.017 30.12H44.8895L44.7245 31.1475H45.6995L45.1745 34.4775H46.352L46.8845 31.1475H47.8595L47.9645 30.4875L48.0245 30.12H48.017ZM68.0645 30.12H64.937L64.772 31.1475H65.7545L65.2295 34.4775H66.407L66.947 31.1475H67.9145L68.042 30.3975L68.0795 30.1275L68.0645 30.12ZM82.472 30.12H82.157L80.0945 34.2075L79.952 34.4775H81.1295L81.482 33.69H83.162L83.2595 34.4775H84.4445L83.6345 30.12H82.4645H82.472ZM82.472 32.85H81.872L82.472 31.575L82.547 31.41C82.5845 31.3125 82.6295 31.2225 82.6595 31.125C82.7045 31.0275 82.742 30.9225 82.7945 30.8175C82.802 30.9675 82.817 31.095 82.832 31.1925C82.832 31.29 82.847 31.3575 82.847 31.4025L83.072 32.835H82.4795L82.472 32.85ZM80.222 30.12H79.0895L78.7445 32.28C78.722 32.385 78.707 32.505 78.6995 32.6475C78.6845 32.79 78.677 32.955 78.677 33.1275C78.617 32.94 78.557 32.775 78.512 32.6475C78.467 32.505 78.4295 32.415 78.407 32.3625L77.1095 30.1275H75.9695L75.2795 34.485H76.4195L76.772 32.3325C76.787 32.2275 76.7945 32.1 76.8095 31.9575C76.8245 31.815 76.832 31.665 76.832 31.4775C76.892 31.665 76.952 31.83 76.997 31.9575C77.042 32.0925 77.0795 32.19 77.117 32.235L78.3995 34.485H79.532L80.0945 30.99L80.222 30.1275V30.12ZM86.1995 33.45L86.7395 30.12H85.547L84.8495 34.4775H87.512L87.677 33.45H86.192H86.1995ZM74.522 30.6975C74.3495 30.4725 74.1245 30.3075 73.8545 30.195C73.5845 30.09 73.2995 30.03 72.9845 30.03C72.8645 30.03 72.752 30.045 72.617 30.0525C72.4295 30.075 72.2495 30.135 72.062 30.195C71.7545 30.315 71.4845 30.48 71.237 30.6975C70.982 30.9075 70.7645 31.155 70.5995 31.4325C70.442 31.7025 70.337 31.995 70.292 32.31C70.232 32.6175 70.247 32.91 70.3145 33.18C70.397 33.45 70.5245 33.6975 70.712 33.9225C70.892 34.1325 71.117 34.2975 71.387 34.4175C71.642 34.5375 71.942 34.5825 72.2495 34.5825C72.377 34.5825 72.497 34.5825 72.617 34.56C72.8045 34.5375 72.992 34.4925 73.172 34.4175C73.4795 34.2975 73.7645 34.1325 74.0045 33.9225C74.267 33.6975 74.477 33.465 74.627 33.18C74.792 32.91 74.882 32.6175 74.942 32.31C74.987 31.995 74.9795 31.695 74.9045 31.4325C74.8295 31.1475 74.702 30.915 74.5145 30.6975H74.522ZM73.757 32.31C73.697 32.6775 73.547 32.985 73.2845 33.2175C73.082 33.42 72.857 33.525 72.6095 33.57C72.5495 33.585 72.482 33.585 72.407 33.585C72.0695 33.585 71.822 33.465 71.642 33.2325C71.462 32.985 71.417 32.6775 71.477 32.31C71.537 31.935 71.687 31.6425 71.9345 31.395C72.137 31.2075 72.362 31.0875 72.602 31.0425C72.6695 31.0425 72.7445 31.035 72.812 31.035C73.127 31.035 73.3745 31.155 73.562 31.4025C73.742 31.65 73.7945 31.9575 73.742 32.3175L73.757 32.31ZM68.0195 34.1925L67.9745 34.4775H69.1745L69.872 30.12H68.672L68.027 34.1925H68.0195ZM62.4245 30.12H62.1095L60.047 34.2075L59.9195 34.4775H61.0895L61.442 33.69H63.1295L63.2195 34.4775H64.397L63.5945 30.12H62.417H62.4245ZM62.4245 32.85H61.8395L62.4245 31.575L62.507 31.41C62.5445 31.3125 62.5745 31.2225 62.627 31.125C62.6645 31.0275 62.7095 30.9225 62.747 30.8175C62.762 30.9675 62.7695 31.095 62.7845 31.1925C62.7995 31.29 62.7995 31.3575 62.807 31.4025L63.017 32.835H62.4245V32.85ZM55.0745 16.8675C55.2095 16.365 55.322 15.855 55.412 15.3225C55.772 13.155 55.652 11.2425 55.0745 9.585C54.752 8.655 54.2795 7.8075 53.657 7.035C51.932 4.89 49.382 3.8175 46.022 3.8175C45.362 3.8175 44.7395 3.8625 44.117 3.945C41.552 4.275 39.2795 5.31 37.322 7.035C34.8845 9.18 33.3995 11.9475 32.837 15.33C32.2745 18.7125 32.852 21.465 34.577 23.6175C36.2945 25.7625 38.837 26.835 42.2045 26.835C42.872 26.835 43.517 26.7975 44.117 26.7225C45.497 26.5575 46.667 26.205 47.642 25.665L50.1245 28.71L53.702 25.695L51.557 23.0175C53.2595 21.285 54.437 19.245 55.0745 16.8825V16.8675ZM48.5495 15.3225C48.3545 16.4775 48.047 17.4525 47.6345 18.24L46.067 16.365L44.117 17.9775L42.5045 19.32L44.0495 21.2175C43.7195 21.3075 43.4195 21.345 43.1195 21.345C42.0095 21.345 41.1245 20.955 40.4495 20.175C39.587 19.14 39.3395 17.52 39.692 15.3225C40.052 13.1325 40.847 11.505 42.0545 10.4625C42.692 9.9225 43.382 9.5625 44.117 9.3975C44.447 9.33 44.777 9.2925 45.107 9.2925C46.232 9.2925 47.1245 9.6825 47.7845 10.4625C48.6545 11.505 48.9095 13.1325 48.5495 15.3225ZM90.6095 4.35H82.712L78.842 8.9025L76.4645 4.35H68.2745L73.622 14.91L65.4095 24.5775L63.932 26.31H71.792L76.667 20.6025L79.532 26.31H87.797L81.7595 14.6925L90.6095 4.3575V4.35ZM66.0845 4.3425H59.222L56.1395 23.04L55.607 26.295H62.4695L64.607 13.32L66.0845 4.3425Z"></path>
<path fill="#EC062B" d="M32.1316 34.5375L0.414141 34.5675L0.369141 0.03L32.0866 0L32.1016 6.1875C31.6966 4.41 29.8291 3.0675 27.6016 3.0675H22.0141L8.35664 3.0825C5.84414 3.0825 3.78914 4.815 3.79664 6.9375L3.81164 24.57C3.81164 26.685 5.87414 28.4175 8.38664 28.4175L11.3941 28.4025L13.7041 31.4925H14.9566L24.5491 31.485L22.2916 28.3875H27.6316C29.8516 28.3875 31.7191 27.03 32.1166 25.245L32.1316 34.5225V34.5375Z"></path>
<path fill="#EC062B" d="M20.356 9.7725L19.4035 8.46C18.766 7.575 17.521 7.3725 16.636 8.01L12.2635 11.1675C11.386 11.805 11.176 13.05 11.821 13.935L17.4085 21.6375L18.3535 22.9575C18.991 23.835 20.2285 24.0375 21.1135 23.4L25.4785 20.2425C26.3635 19.6125 26.5585 18.3675 25.9285 17.4825L20.356 9.765V9.7725Z"></path>
</g>
<defs>
<clipPath id="clip0_406_4635">
<rect transform="translate(0.369141)" fill="white" height="34.5825" width="90.2625"></rect>
</clipPath>
</defs>
</svg>
